<?xml version="1.0" encoding="utf-8"?>
<!-- Generator: Adobe Illustrator 23.1.0, SVG Export Plug-In . SVG Version: 6.00 Build 0)  -->
<svg version="1.1" id="Layer_1" xmlns="http://www.w3.org/2000/svg" xmlns:xlink="http://www.w3.org/1999/xlink" x="0px" y="0px"
	 viewBox="0 0 40 40" style="enable-background:new 0 0 40 40;" xml:space="preserve">
<style type="text/css">
	.st0{fill:#FFFFFF;}
</style>
<g>
	<path class="st0" d="M15.5,31.8L4.1,20.4c-0.2-0.2-0.2-0.5,0-0.7l2-2c0.2-0.2,0.5-0.2,0.7,0l11.4,11.4c0.2,0.2,0.2,0.5,0,0.7l-2,2
		C16,32,15.7,32,15.5,31.8z"/>
</g>
<g>
	<path class="st0" d="M36.6,21.9H6c-0.3,0-0.5-0.2-0.5-0.5v-2.8c0-0.3,0.2-0.5,0.5-0.5h30.5c0.3,0,0.5,0.2,0.5,0.5v2.8
		C37.1,21.7,36.8,21.9,36.6,21.9z"/>
</g>
<g>
	<path class="st0" d="M18.2,10.9L6.8,22.3c-0.2,0.2-0.5,0.2-0.7,0l-2-2c-0.2-0.2-0.2-0.5,0-0.7L15.5,8.2C15.7,8,16,8,16.2,8.2l2,2
		C18.4,10.4,18.4,10.7,18.2,10.9z"/>
</g>
</svg>
