<?xml version="1.0" encoding="utf-8"?>
<!-- Generator: Adobe Illustrator 24.0.1, SVG Export Plug-In . SVG Version: 6.00 Build 0)  -->
<svg version="1.1" id="Layer_1" xmlns="http://www.w3.org/2000/svg" xmlns:xlink="http://www.w3.org/1999/xlink" x="0px" y="0px"
	 viewBox="0 0 20 20" style="enable-background:new 0 0 20 20;" xml:space="preserve">
<title>Combined Shape</title>
<desc>Created with Sketch.</desc>
<g id="Page-1">
	<g id="Homepage_Refresh_Nov" transform="translate(-1052.000000, -41.000000)">
		<g id="Nav---Desktop">
			<g id="Group-10" transform="translate(230.000000, 30.000000)">
				<g id="navigation_x2F_utility-navigation" transform="translate(795.000000, 0.000000)">
					<g id="cart-_x28_outline_x29_" transform="translate(28.000000, 12.000000)">
						<path id="Combined-Shape" d="M5.4,15.9C5.5,16,5.5,16,5.6,16h0.5c0.3,0,0.5,0.2,0.5,0.5v0.8c0,0.1,0,0.1,0.1,0.2
							c0.1,0.1,0.1,0.1,0.2,0.1s0.1,0,0.2-0.1c0.1-0.1,0.1-0.1,0.1-0.2v-0.8c0-0.3,0.2-0.5,0.5-0.5h4.5c0.3,0,0.5,0.2,0.5,0.5v0.8
							c0,0.1,0,0.1,0.1,0.2c0.1,0.1,0.1,0.1,0.2,0.1c0.1,0,0.1,0,0.2-0.1c0.1-0.1,0.1-0.1,0.1-0.2v-0.8c0-0.3,0.2-0.5,0.5-0.5h0.8
							c0.1,0,0.1,0,0.2-0.1c0.1-0.1,0.1-0.1,0.1-0.2s0-0.1-0.1-0.2c-0.1-0.1-0.1-0.1-0.2-0.1h-8c-0.2,0-0.4-0.2-0.5-0.4l-0.7-3
							c-0.1-0.3,0.2-0.6,0.5-0.6h9.5c0.2,0,0.4-0.1,0.5-0.2c0.2-0.2,0.2-0.3,0.3-0.4l1.5-7.1c0-0.1,0-0.2,0-0.2
							c-0.1-0.1-0.1-0.1-0.2-0.1H3.6c-0.2,0-0.4-0.2-0.5-0.4L2.6,0.7c0-0.1,0-0.1-0.1-0.1c-0.1,0-0.1-0.1-0.2-0.1H0.9
							c-0.1,0-0.1,0-0.2,0.1C0.7,0.6,0.7,0.7,0.7,0.8s0,0.1,0.1,0.2C0.8,1,0.9,1,0.9,1h0.8C2,1,2.2,1.2,2.2,1.4l3,14.4
							C5.3,15.8,5.3,15.9,5.4,15.9z M1.3,2H0.9C0.6,2,0.3,1.9,0,1.6c-0.2-0.2-0.4-0.5-0.4-0.9S-0.2,0.1,0-0.1
							c0.2-0.2,0.5-0.4,0.9-0.4h1.4c0.3,0,0.5,0.1,0.8,0.3c0.2,0.2,0.4,0.4,0.4,0.7l0.5,2h13c0.4,0,0.7,0.2,1,0.5
							c0.2,0.3,0.3,0.7,0.3,1.1l-1.5,7.1c-0.1,0.3-0.3,0.6-0.5,0.9c-0.3,0.3-0.7,0.5-1.2,0.5H6.2l0.5,2h7.6c0.3,0,0.6,0.1,0.9,0.4
							c0.2,0.2,0.4,0.5,0.4,0.9s-0.1,0.6-0.4,0.9C15,16.9,14.7,17,14.3,17h-0.3v0.3c0,0.3-0.1,0.6-0.4,0.9c-0.2,0.2-0.5,0.4-0.9,0.4
							c-0.3,0-0.6-0.1-0.9-0.4s-0.4-0.5-0.4-0.9V17H8.1v0.3c0,0.3-0.1,0.6-0.4,0.9s-0.5,0.4-0.9,0.4c-0.3,0-0.6-0.1-0.9-0.4
							s-0.4-0.5-0.4-0.9V17c-0.3,0-0.5-0.1-0.7-0.2c-0.2-0.1-0.3-0.3-0.5-0.5l-0.1-0.1l0-0.1L1.3,2z M17,5.5c0.3,0,0.5,0.2,0.5,0.5
							S17.3,6.5,17,6.5H4.5C4.2,6.5,4,6.3,4,6s0.2-0.5,0.5-0.5H17z M16.6,8.5c0.3,0,0.5,0.2,0.5,0.5s-0.2,0.5-0.5,0.5H5
							C4.7,9.5,4.5,9.3,4.5,9S4.7,8.5,5,8.5H16.6z M3.1,2.9C3,2.7,3.2,2.4,3.5,2.4C3.8,2.3,4,2.5,4.1,2.7l2,9.3
							c0.1,0.3-0.1,0.5-0.4,0.6c-0.3,0.1-0.5-0.1-0.6-0.4L3.1,2.9z"/>
					</g>
				</g>
			</g>
		</g>
	</g>
</g>
</svg>
