<?xml version="1.0" encoding="utf-8"?>
<!-- Generator: Adobe Illustrator 23.1.0, SVG Export Plug-In . SVG Version: 6.00 Build 0)  -->
<svg version="1.1" id="Layer_1" xmlns="http://www.w3.org/2000/svg" xmlns:xlink="http://www.w3.org/1999/xlink" x="0px" y="0px"
	 viewBox="0 0 40 40" style="enable-background:new 0 0 40 40;" xml:space="preserve">
<style type="text/css">
	.st0{fill:#FFFFFF;}
</style>
<g>
	<path class="st0" d="M29.3,32.7L6.7,10c-0.2-0.2-0.2-0.5,0-0.7l2.1-2.1C9,7,9.3,7,9.5,7.2l22.6,22.6c0.2,0.2,0.2,0.5,0,0.7L30,32.7
		C29.8,32.9,29.5,32.9,29.3,32.7z"/>
</g>
<g>
	<path class="st0" d="M32.7,10L10.1,32.7c-0.2,0.2-0.5,0.2-0.7,0l-2.1-2.1c-0.2-0.2-0.2-0.5,0-0.7L29.9,7.2c0.2-0.2,0.5-0.2,0.7,0
		l2.1,2.1C32.9,9.5,32.9,9.8,32.7,10z"/>
</g>
</svg>
