<?xml version="1.0" encoding="utf-8"?>
<!-- Generator: Adobe Illustrator 24.1.1, SVG Export Plug-In . SVG Version: 6.00 Build 0)  -->
<svg version="1.1" id="Layer_1" xmlns="http://www.w3.org/2000/svg" xmlns:xlink="http://www.w3.org/1999/xlink" x="0px" y="0px"
	 viewBox="0 0 586.8 99.9" style="enable-background:new 0 0 586.8 99.9;" xml:space="preserve">
<style type="text/css">
	.st0{fill:#CECECE;}
</style>
<g>
	<polygon class="st0" points="534.3,0 546.7,38.1 586.8,38.2 554.4,61.8 566.7,99.9 534.3,76.4 501.8,99.9 514.2,61.8 481.8,38.2 
		521.8,38.1 	"/>
</g>
<g>
	<polygon class="st0" points="173,0 185.4,38.1 225.5,38.2 193.1,61.8 205.4,99.9 173,76.4 140.5,99.9 152.8,61.8 120.4,38.2 
		160.5,38.1 	"/>
</g>
<g>
	<polygon class="st0" points="52.5,0 64.9,38.1 105,38.2 72.6,61.8 85,99.9 52.5,76.4 20.1,99.9 32.4,61.8 0,38.2 40.1,38.1 	"/>
</g>
<g>
	<polygon class="st0" points="293.4,0 305.8,38.1 345.9,38.2 313.5,61.8 325.9,99.9 293.4,76.4 260.9,99.9 273.3,61.8 240.9,38.2 
		281,38.1 	"/>
</g>
<g>
	<polygon class="st0" points="413.8,0 426.3,38.1 466.4,38.2 433.9,61.8 446.3,99.9 413.8,76.4 381.4,99.9 393.7,61.8 361.3,38.2 
		401.4,38.1 	"/>
</g>
<g>
	<path d="M264.7,28.1C265.2,10.2,276.4,0,293.9,0c16.9,0,28.2,8.2,28.2,23.6c0,22.3-22.3,23.3-22.3,42.3h-12.4
		c0-22.7,19.6-22.9,19.6-39.9c0-8.2-5.8-12.1-14.5-12.1c-9.2,0-14.7,4.8-15.1,14.4L264.7,28.1z M302.4,89.9c0,5.5-3.8,9.5-8.9,9.5
		c-5.1,0-8.9-4-8.9-9.5c0-5.4,3.8-9.2,8.9-9.2C298.6,80.7,302.4,84.6,302.4,89.9z"/>
</g>
</svg>
