<?xml version="1.0" encoding="utf-8"?>
<!-- Generator: Adobe Illustrator 24.1.1, SVG Export Plug-In . SVG Version: 6.00 Build 0)  -->
<svg version="1.1" id="Layer_1" xmlns="http://www.w3.org/2000/svg" xmlns:xlink="http://www.w3.org/1999/xlink" x="0px" y="0px"
	 viewBox="0 0 586.8 99.9" style="enable-background:new 0 0 586.8 99.9;" xml:space="preserve">
<style type="text/css">
	.st0{fill:#FFBE2C;}
	.st1{fill:#AAAAAA;}
</style>
<g>
	<polygon class="st0" points="413.8,0 426.3,38.1 466.4,38.2 433.9,61.8 446.3,99.9 413.8,76.4 381.4,99.9 393.7,61.8 361.3,38.2 
		401.4,38.1 	"/>
</g>
<g>
	<polygon class="st0" points="293.4,0 305.8,38.1 345.9,38.2 313.5,61.8 325.9,99.9 293.4,76.4 260.9,99.9 273.3,61.8 240.9,38.2 
		281,38.1 	"/>
</g>
<g>
	<polygon class="st0" points="173,0 185.4,38.1 225.5,38.2 193.1,61.8 205.4,99.9 173,76.4 140.5,99.9 152.8,61.8 120.4,38.2 
		160.5,38.1 	"/>
</g>
<g>
	<polygon class="st0" points="52.5,0 64.9,38.1 105,38.2 72.6,61.8 85,99.9 52.5,76.4 20.1,99.9 32.4,61.8 0,38.2 40.1,38.1 	"/>
</g>
<g>
	<polygon class="st1" points="534.3,0 546.7,38.1 586.8,38.2 554.4,61.8 566.7,99.9 534.3,76.4 501.8,99.9 514.2,61.8 481.8,38.2 
		521.8,38.1 	"/>
</g>
<g>
	<g>
		<polyline class="st0" points="534.3,76.4 501.8,99.9 514.2,61.8 481.8,38.2 521.8,38.1 534.3,0 		"/>
	</g>
	<g>
		<polyline class="st1" points="534.3,0 546.7,38.1 586.8,38.2 554.4,61.8 566.7,99.9 534.3,76.4 		"/>
	</g>
</g>
</svg>
