<?xml version="1.0" encoding="utf-8"?>
<!-- Generator: Adobe Illustrator 24.0.0, SVG Export Plug-In . SVG Version: 6.00 Build 0)  -->
<svg version="1.1" id="Layer_1" xmlns="http://www.w3.org/2000/svg" xmlns:xlink="http://www.w3.org/1999/xlink" x="0px" y="0px"
	 viewBox="0 0 782.4 130.1" style="enable-background:new 0 0 782.4 130.1;" xml:space="preserve">
<title>PicoBrew_logo_wordmark_white</title>
<g id="Layer_2_1_">
	<g id="Layer_1-2">
		<path d="M114.5,32.2h17.1v97.4h-17.1C114.5,129.6,114.5,32.2,114.5,32.2z M123,0c-2.9-0.1-5.6,1.1-7.6,3.1c-2,2.1-3.1,5-3,7.9
			c-0.1,2.9,1,5.8,3,7.9c4.2,4.2,11,4.2,15.3,0c2-2.1,3.1-5,3-7.9c0.1-2.9-1-5.8-3-7.9C128.6,1.1,125.9-0.1,123,0z M212.7,112.1
			c-5.4,2.2-11.1,3.2-16.9,3.1c-5.8,0.1-11.6-1.4-16.7-4.3c-4.9-2.9-8.8-7.1-11.4-12.1c-2.8-5.5-4.3-11.6-4.2-17.8
			c-0.1-6.2,1.3-12.4,4.2-17.9c2.7-5,6.7-9.2,11.7-12c5.2-2.9,11.1-4.3,17-4.2c10.4-0.2,20.4,3.9,27.8,11.2l9.4-11.8
			c-4.6-4.9-10.2-8.7-16.5-11c-7.1-2.6-14.6-3.9-22.2-3.7c-8.8-0.2-17.5,2-25.2,6.3c-7.3,4.1-13.2,10.1-17.2,17.5
			c-4.2,7.9-6.3,16.7-6.2,25.6c-0.2,8.9,2,17.7,6.2,25.5c4,7.3,10,13.3,17.2,17.4c7.7,4.2,16.4,6.4,25.2,6.2
			c7.9,0.1,15.8-1.4,23.1-4.4c6.6-2.8,12.4-7.1,16.9-12.7l-9.8-9.9C221.9,107,217.6,110.1,212.7,112.1L212.7,112.1z M493.8,53.2v-21
			h-17.1v97.4h17.1V78.2c0.9-9.3,4.4-16.8,10.5-22.3s14.2-8.1,24.1-7.7V31.6c-8.1,0.1-15.1,2-21,5.6C501.3,41,496.6,46.6,493.8,53.2
			z M611.9,45c7.7,8.9,11.6,21.3,11.6,37.1c0,2.5-0.1,4.3-0.2,5.5h-77c1.3,8.7,5,15.7,11,20.8s13.3,7.7,22,7.7c5.5,0,11-1,16.1-3.2
			c4.9-2,9.3-5,13-8.8l9.4,9.8c-4.8,5.2-10.7,9.3-17.3,12c-7.1,2.9-14.8,4.3-22.5,4.2c-8.9,0.2-17.7-2-25.5-6.2
			c-7.3-4-13.3-10-17.3-17.4c-4.2-7.9-6.3-16.6-6.2-25.6c-0.2-8.9,2-17.7,6.2-25.5c4-7.3,10-13.4,17.3-17.5
			c7.7-4.3,16.4-6.5,25.2-6.4C592.7,31.6,604.2,36.1,611.9,45z M608,74.3c-0.5-8.8-3.4-15.8-8.8-20.9s-12.5-7.6-21.3-7.6
			c-8.6,0-15.8,2.6-21.5,7.7s-9.1,12.1-10.2,20.8H608z M764.8,32.2l-26.9,80.4l-27.1-80.4H693l-26.9,80.4l-27.3-80.4H621l36.1,97.4
			H675L701.8,53l26.9,76.6h17.9l35.9-97.4L764.8,32.2z M449.7,72.6c5.1,5.8,7.6,13.1,7.6,21.8c0,11.1-4.1,19.7-12.4,25.9
			c-8.3,6.2-19.7,9.3-34.3,9.3h-56V0.7h55c13.1,0,23.5,2.9,31,8.6S451.9,22.9,452,33c0,7.4-2.1,13.6-6.3,18.7s-9.9,8.5-17.1,10.2
			C437.5,63.2,444.6,66.7,449.7,72.6z M439.3,92.2c0.2-6.2-2.9-12-8.1-15.3c-5.4-3.7-12.9-5.5-22.5-5.5L386,71.5v-16l22.7-0.1
			c8,0,14.2-1.7,18.5-5.1c4.3-3.4,6.5-8.2,6.5-14.5c0-6.1-2.2-10.9-6.5-14.2s-10.5-4.9-18.5-4.8h-36.5v28.4l0,0V79l0,0v34.4h36.5
			c9.6,0.1,17.1-1.7,22.5-5.4C436.4,104.5,439.5,98.5,439.3,92.2L439.3,92.2z M87,12.1C78.2,4.5,65.8,0.7,49.7,0.7H0v128.9h17.7
			V96.2h-0.1V63.4h0.1V16.9L49,16.7c11.1,0,19.5,2.4,25.4,7.1s8.8,11.7,8.8,20.9c0,9.5-2.9,16.6-8.8,21.4S60,73.4,49,73.4H31.4v16
			h18.4c16,0,28.4-4,37.2-11.9s13.3-19.1,13.3-33.4C100.2,30.4,95.8,19.7,87,12.1z M337.2,80.6c0,27.1-21.9,49-49,49s-49-21.9-49-49
			s21.9-49,49-49S337.2,53.5,337.2,80.6z M322.1,80.6c0-18.7-15.2-33.9-33.9-33.9c-18.7,0-33.9,15.2-33.9,33.9s15.2,33.9,33.9,33.9
			S322.1,99.3,322.1,80.6L322.1,80.6z"/>
	</g>
</g>
</svg>
